inDegrees=yes
name=ik_appendData_SPIN
DataType=double
version=3
OpenSimVersion=4.5
endheader
time	pelvis_tilt	pelvis_list	pelvis_rotation	pelvis_tx	pelvis_ty	pelvis_tz	hip_flexion_r	hip_adduction_r	hip_rotation_r	knee_angle_r	knee_angle_r_beta	ankle_angle_r	subtalar_angle_r	mtp_angle_r	hip_flexion_l	hip_adduction_l	hip_rotation_l	knee_angle_l	knee_angle_l_beta	ankle_angle_l	subtalar_angle_l	mtp_angle_l	lumbar_extension	lumbar_bending	lumbar_rotation	arm_flex_r	arm_add_r	arm_rot_r	elbow_flex_r	pro_sup_r	wrist_flex_r	wrist_dev_r	arm_flex_l	arm_add_l	arm_rot_l	elbow_flex_l	pro_sup_l	wrist_flex_l	wrist_dev_l
0	-0.1962012134180962	89.65413380239372	0.1963074303416851	0	0.9399999999999999	0	44.52190838298024	-10.08383735560065	0	59.93843514301299	1.046123041738655	-5.01322688709288	0	0	44.52190838298024	-10.08383735560065	0	59.93843514301299	1.046123041738655	-5.01322688709288	0	0	-0.001475532167296223	0.3449243925069557	-0.0001710417440223622	0	-12.10964336608513	0	76.36938724937799	44.88914410013746	0	0	-0.2373999221938207	-0.05536100130299455	-0.005549577056840554	0.4873563739460859	44.88914410013746	0	0
1	-0.1965311072273296	89.65325350623877	0.1959315955531557	0	0.9399999999999999	0	44.52201977049003	-10.08376881871294	0	59.93844638533762	1.046123237954235	-5.01321277141778	0	0	44.52201977049003	-10.08376881871294	0	59.93844638533762	1.046123237954235	-5.01321277141778	0	0	0.0002891728772642227	0.3469074691235411	-0.0004149548744544393	0	-12.10998745402288	0	76.36906815399396	44.88921573505154	0	0	-0.2379990199309256	-0.053367689865113	-0.005228955577350475	0.4861922326864411	44.88921573505154	0	0
2	-0.1972126057877104	89.64772273024501	0.1952378037500361	0	0.9399999999999999	0	44.52210190867036	-10.0837183404941	0	59.93845467995678	1.04612338272265	-5.013202378985949	0	0	44.52210190867036	-10.0837183404941	0	59.93845467995678	1.04612338272265	-5.013202378985949	0	0	0.002672056986640392	0.3616640313179076	-0.0009803691645250859	0	-12.11024130214051	0	76.36883285021997	44.8892685101661	0	0	-0.2429226753146108	-0.04188783294826312	-0.004872200035320002	0.4847819956916367	44.8892685101661	0	0
3	-0.1957204313182581	89.64205675270202	0.196730909244672	0	0.9399999999999999	0	44.52216031340319	-10.08368249914213	0	59.93846058217365	1.046123485735767	-5.01319500301939	0	0	44.52216031340319	-10.08368249914213	0	59.93846058217365	1.046123485735767	-5.01319500301939	0	0	0.006015254979368068	0.3928886261508154	0.0003743038313191394	0	-12.11042190642201	0	76.36866553648154	44.88930599446876	0	0	-0.2481718479924326	-0.01164670071339922	-0.005875910347256479	0.4928598111532322	44.88930599446876	0	0
4	-0.7600303914871719	89.66707649655963	-0.3681372819528577	0	0.9399999999999999	0	44.52229365078523	-10.08360122561694	0	59.93847413476723	1.046123722273148	-5.013178297723955	0	0	44.52229365078523	-10.08360122561694	0	59.93847413476723	1.046123722273148	-5.013178297723955	0	0	-0.002229291392877576	0.3360640244750728	1.124816137523884	0	-12.11083593672057	0	76.36828356234923	44.88939109048353	0	0	-0.238244951863291	-0.05111395235475885	-0.008588333724435116	0.4864364280709811	44.88939109048353	0	0
5	-0.7607409917932471	89.65685171750931	-0.3692017524503018	0	0.9399999999999999	0	44.52236633185215	-10.08355663868361	0	59.93848147713322	1.046123850421609	-5.013169124473918	0	0	44.52236633185215	-10.08355663868361	0	59.93848147713322	1.046123850421609	-5.013169124473918	0	0	0.0002476794885094121	0.3575023317019144	1.126681026843595	0	-12.11106066068541	0	76.36807535079508	44.88943772884802	0	0	-0.2443841076099869	-0.03401077691554019	-0.005563281793609731	0.4864625567580773	44.88943772884802	0	0
6	-0.761475686679347	89.66156758620951	-0.3703875652565661	0	0.9399999999999999	0	44.52245991926308	-10.08349920387075	0	59.93849092627699	1.046124015340279	-5.013157307954152	0	0	44.52245991926308	-10.08349920387075	0	59.93849092627699	1.046124015340279	-5.013157307954152	0	0	0.004496335234291974	0.3470422804128232	1.126708727733517	0	-12.11134992721559	0	76.36780724817353	44.88949780432622	0	0	-0.2372424821814058	-0.04762994860065526	-0.004531520727322944	0.4861472866484024	44.88949780432622	0	0
